<!DOCTYPE svg PUBLIC "-//W3C//DTD SVG 1.1//EN" "http://www.w3.org/Graphics/SVG/1.1/DTD/svg11.dtd">
<!-- Uploaded to: SVG Repo, www.svgrepo.com, Transformed by: SVG Repo Mixer Tools -->
<svg width="800px" height="800px" viewBox="0 0 24 24" fill="none" xmlns="http://www.w3.org/2000/svg">
<g id="SVGRepo_bgCarrier" stroke-width="0"/>
<g id="SVGRepo_tracerCarrier" stroke-linecap="round" stroke-linejoin="round"/>
<g id="SVGRepo_iconCarrier"> <path fill-rule="evenodd" clip-rule="evenodd" d="M20.2399 11.13C22.5715 11.6398 23.8976 13.5719 23.9388 15.5304C23.9622 16.6435 23.5704 17.778 22.7096 18.6344C21.8421 19.4974 20.5784 20 19 20L6.00002 20C2.02368 20 -0.0242121 16.479 0.251925 13.4332C0.393448 11.8721 1.13583 10.3317 2.59153 9.33656C3.90988 8.43533 5.6974 8.05913 7.90833 8.37933C8.83298 6.4967 10.0762 5.26023 11.4894 4.61875C13.0591 3.90625 14.7192 3.98305 16.1475 4.55674C18.6352 5.55597 20.6366 8.19432 20.2399 11.13ZM12.3161 6.43991C11.3069 6.89799 10.2552 7.90321 9.45497 9.808C9.25035 10.295 8.72748 10.5665 8.21623 10.4625C6.04895 10.0217 4.61212 10.3779 3.72022 10.9876C2.82799 11.5976 2.33964 12.5561 2.24376 13.6137C2.04508 15.8052 3.49567 18 6.00002 18L19 18C20.1447 18 20.8687 17.6447 21.299 17.2166C21.7361 16.7818 21.9522 16.192 21.9392 15.5724C21.9134 14.347 20.991 13.0534 19.1179 13.0016C18.3877 12.9815 17.8631 12.2597 18.0981 11.5493C18.7918 9.45185 17.4546 7.23709 15.402 6.41263C14.4137 6.01564 13.3264 5.9813 12.3161 6.43991Z" fill="#806DD6"/> <path d="M15.8095 10.2929C15.419 9.90237 14.7859 9.90237 14.3953 10.2929L11.0638 13.6245L9.70712 12.2678C9.3166 11.8773 8.68343 11.8773 8.29291 12.2678C7.90238 12.6584 7.90238 13.2915 8.29291 13.6821L10.3552 15.7443C10.5063 15.8955 10.6938 15.9881 10.8894 16.0223C11.2001 16.0773 11.5318 15.9848 11.7719 15.7448L15.8095 11.7071C16.2001 11.3166 16.2001 10.6834 15.8095 10.2929Z" fill="#806DD6"/> </g>
</svg>